<svg height="1822" width="720" xmlns="http://www.w3.org/2000/svg">
<rect height="1822" fill="#555" width="720"></rect>
<text fill="#7f7" font-family="Courier New" font-size="12" xml:space="preserve">
<tspan x="10" y="26">28 megabytes installed</tspan>
<tspan x="10" y="42"></tspan>
<tspan x="10" y="58">node_modules</tspan>
<tspan x="10" y="74">└─┬ autodoc@0.6.4 </tspan>
<tspan x="10" y="90">  ├── benchmark@1.0.0 </tspan>
<tspan x="10" y="106">  ├── bootscrap@0.1.0 </tspan>
<tspan x="10" y="122">  ├── codemirror@3.20.0 </tspan>
<tspan x="10" y="138">  ├─┬ codemirror-highlight@1.1.1 </tspan>
<tspan x="10" y="154">  │ └── escape-html@1.0.3 </tspan>
<tspan x="10" y="170">  ├── coffee-script@1.12.5 </tspan>
<tspan x="10" y="186">  ├── commander@2.0.0 </tspan>
<tspan x="10" y="202">  ├── doctrine@0.3.1-dev  (git://github.com/dtao/doctrine.git#dd8b7f54e2b54c4965f8d1419a23c3827d\</tspan>
<tspan x="10" y="218">fa18fd)</tspan>
<tspan x="10" y="234">  ├── esprima@1.0.4 </tspan>
<tspan x="10" y="250">  ├─┬ jasmine-node@1.12.0 </tspan>
<tspan x="10" y="266">  │ ├─┬ gaze@0.3.4 </tspan>
<tspan x="10" y="282">  │ │ ├─┬ fileset@0.1.8 </tspan>
<tspan x="10" y="298">  │ │ │ └─┬ glob@3.2.11 </tspan>
<tspan x="10" y="314">  │ │ │   ├── inherits@2.0.3 </tspan>
<tspan x="10" y="330">  │ │ │   └── minimatch@0.3.0 </tspan>
<tspan x="10" y="346">  │ │ └─┬ minimatch@0.2.14 </tspan>
<tspan x="10" y="362">  │ │   ├── lru-cache@2.7.3 </tspan>
<tspan x="10" y="378">  │ │   └── sigmund@1.0.1 </tspan>
<tspan x="10" y="394">  │ ├─┬ jasmine-growl-reporter@0.0.3 </tspan>
<tspan x="10" y="410">  │ │ └── growl@1.7.0 </tspan>
<tspan x="10" y="426">  │ ├─┬ jasmine-reporters@2.2.1 </tspan>
<tspan x="10" y="442">  │ │ ├─┬ mkdirp@0.5.1 </tspan>
<tspan x="10" y="458">  │ │ │ └── minimist@0.0.8 </tspan>
<tspan x="10" y="474">  │ │ └── xmldom@0.1.27 </tspan>
<tspan x="10" y="490">  │ ├── mkdirp@0.3.5 </tspan>
<tspan x="10" y="506">  │ ├── requirejs@2.3.3 </tspan>
<tspan x="10" y="522">  │ ├── underscore@1.8.3 </tspan>
<tspan x="10" y="538">  │ └── walkdir@0.0.11 </tspan>
<tspan x="10" y="554">  ├── lazy.js@0.5.0  (git://github.com/dtao/lazy.js.git#36bab6c3359d6d96ff3fb423fa17e5027d9df6e2\</tspan>
<tspan x="10" y="570">)</tspan>
<tspan x="10" y="586">  ├─┬ less@1.6.0 </tspan>
<tspan x="10" y="602">  │ ├── clean-css@2.0.8 </tspan>
<tspan x="10" y="618">  │ ├── mime@1.2.11 </tspan>
<tspan x="10" y="634">  │ ├─┬ request@2.81.0 </tspan>
<tspan x="10" y="650">  │ │ ├── aws-sign2@0.6.0 </tspan>
<tspan x="10" y="666">  │ │ ├── aws4@1.6.0 </tspan>
<tspan x="10" y="682">  │ │ ├── caseless@0.12.0 </tspan>
<tspan x="10" y="698">  │ │ ├─┬ combined-stream@1.0.5 </tspan>
<tspan x="10" y="714">  │ │ │ └── delayed-stream@1.0.0 </tspan>
<tspan x="10" y="730">  │ │ ├── extend@3.0.0 </tspan>
<tspan x="10" y="746">  │ │ ├── forever-agent@0.6.1 </tspan>
<tspan x="10" y="762">  │ │ ├─┬ form-data@2.1.4 </tspan>
<tspan x="10" y="778">  │ │ │ └── asynckit@0.4.0 </tspan>
<tspan x="10" y="794">  │ │ ├─┬ har-validator@4.2.1 </tspan>
<tspan x="10" y="810">  │ │ │ ├─┬ ajv@4.11.7 </tspan>
<tspan x="10" y="826">  │ │ │ │ ├── co@4.6.0 </tspan>
<tspan x="10" y="842">  │ │ │ │ └─┬ json-stable-stringify@1.0.1 </tspan>
<tspan x="10" y="858">  │ │ │ │   └── jsonify@0.0.0 </tspan>
<tspan x="10" y="874">  │ │ │ └── har-schema@1.0.5 </tspan>
<tspan x="10" y="890">  │ │ ├─┬ hawk@3.1.3 </tspan>
<tspan x="10" y="906">  │ │ │ ├── boom@2.10.1 </tspan>
<tspan x="10" y="922">  │ │ │ ├── cryptiles@2.0.5 </tspan>
<tspan x="10" y="938">  │ │ │ ├── hoek@2.16.3 </tspan>
<tspan x="10" y="954">  │ │ │ └── sntp@1.0.9 </tspan>
<tspan x="10" y="970">  │ │ ├─┬ http-signature@1.1.1 </tspan>
<tspan x="10" y="986">  │ │ │ ├── assert-plus@0.2.0 </tspan>
<tspan x="10" y="1002">  │ │ │ ├─┬ jsprim@1.4.0 </tspan>
<tspan x="10" y="1018">  │ │ │ │ ├── assert-plus@1.0.0 </tspan>
<tspan x="10" y="1034">  │ │ │ │ ├── extsprintf@1.0.2 </tspan>
<tspan x="10" y="1050">  │ │ │ │ ├── json-schema@0.2.3 </tspan>
<tspan x="10" y="1066">  │ │ │ │ └── verror@1.3.6 </tspan>
<tspan x="10" y="1082">  │ │ │ └─┬ sshpk@1.13.0 </tspan>
<tspan x="10" y="1098">  │ │ │   ├── asn1@0.2.3 </tspan>
<tspan x="10" y="1114">  │ │ │   ├── assert-plus@1.0.0 </tspan>
<tspan x="10" y="1130">  │ │ │   ├── bcrypt-pbkdf@1.0.1 </tspan>
<tspan x="10" y="1146">  │ │ │   ├─┬ dashdash@1.14.1 </tspan>
<tspan x="10" y="1162">  │ │ │   │ └── assert-plus@1.0.0 </tspan>
<tspan x="10" y="1178">  │ │ │   ├── ecc-jsbn@0.1.1 </tspan>
<tspan x="10" y="1194">  │ │ │   ├─┬ getpass@0.1.6 </tspan>
<tspan x="10" y="1210">  │ │ │   │ └── assert-plus@1.0.0 </tspan>
<tspan x="10" y="1226">  │ │ │   ├── jodid25519@1.0.2 </tspan>
<tspan x="10" y="1242">  │ │ │   ├── jsbn@0.1.1 </tspan>
<tspan x="10" y="1258">  │ │ │   └── tweetnacl@0.14.5 </tspan>
<tspan x="10" y="1274">  │ │ ├── is-typedarray@1.0.0 </tspan>
<tspan x="10" y="1290">  │ │ ├── isstream@0.1.2 </tspan>
<tspan x="10" y="1306">  │ │ ├── json-stringify-safe@5.0.1 </tspan>
<tspan x="10" y="1322">  │ │ ├─┬ mime-types@2.1.15 </tspan>
<tspan x="10" y="1338">  │ │ │ └── mime-db@1.27.0 </tspan>
<tspan x="10" y="1354">  │ │ ├── oauth-sign@0.8.2 </tspan>
<tspan x="10" y="1370">  │ │ ├── performance-now@0.2.0 </tspan>
<tspan x="10" y="1386">  │ │ ├── qs@6.4.0 </tspan>
<tspan x="10" y="1402">  │ │ ├── safe-buffer@5.0.1 </tspan>
<tspan x="10" y="1418">  │ │ ├── stringstream@0.0.5 </tspan>
<tspan x="10" y="1434">  │ │ ├─┬ tough-cookie@2.3.2 </tspan>
<tspan x="10" y="1450">  │ │ │ └── punycode@1.4.1 </tspan>
<tspan x="10" y="1466">  │ │ ├── tunnel-agent@0.6.0 </tspan>
<tspan x="10" y="1482">  │ │ └── uuid@3.0.1 </tspan>
<tspan x="10" y="1498">  │ └─┬ source-map@0.1.43 </tspan>
<tspan x="10" y="1514">  │   └── amdefine@1.0.1 </tspan>
<tspan x="10" y="1530">  ├── marked@0.3.2 </tspan>
<tspan x="10" y="1546">  ├── mustache@0.7.2 </tspan>
<tspan x="10" y="1562">  ├── resolve@0.6.1 </tspan>
<tspan x="10" y="1578">  ├─┬ spiderman@0.1.5 </tspan>
<tspan x="10" y="1594">  │ └─┬ escodegen@1.8.1 </tspan>
<tspan x="10" y="1610">  │   ├── esprima@2.7.3 </tspan>
<tspan x="10" y="1626">  │   ├── estraverse@1.9.3 </tspan>
<tspan x="10" y="1642">  │   ├── esutils@2.0.2 </tspan>
<tspan x="10" y="1658">  │   ├─┬ optionator@0.8.2 </tspan>
<tspan x="10" y="1674">  │   │ ├── deep-is@0.1.3 </tspan>
<tspan x="10" y="1690">  │   │ ├── fast-levenshtein@2.0.6 </tspan>
<tspan x="10" y="1706">  │   │ ├── levn@0.3.0 </tspan>
<tspan x="10" y="1722">  │   │ ├── prelude-ls@1.1.2 </tspan>
<tspan x="10" y="1738">  │   │ ├── type-check@0.3.2 </tspan>
<tspan x="10" y="1754">  │   │ └── wordwrap@1.0.0 </tspan>
<tspan x="10" y="1770">  │   └── source-map@0.2.0 </tspan>
<tspan x="10" y="1786">  └─┬ string-table@0.1.5 </tspan>
<tspan x="10" y="1802">    └── colors@1.1.2</tspan>
</text>
</svg>
